<?xml version="1.0" encoding="UTF-8"?>
<svg id="Layer_1" xmlns="http://www.w3.org/2000/svg" version="1.1" viewBox="0 0 57.43 56.69">
  <!-- Generator: Adobe Illustrator 29.6.1, SVG Export Plug-In . SVG Version: 2.1.1 Build 9)  -->
  <defs>
    <style>
      .st0 {
        fill: #010101;
      }
    </style>
  </defs>
  <path class="st0" d="M28.8,56.69c-2.61,0-5.12-.35-7.54-1.02-2.42-.68-4.68-1.64-6.78-2.87-2.1-1.22-4-2.69-5.72-4.42-1.73-1.71-3.2-3.64-4.42-5.72-1.23-2.1-2.18-4.36-2.87-6.78-.67-2.42-1.02-4.93-1.02-7.54s.34-5.12,1.02-7.54c.68-2.42,1.64-4.68,2.87-6.78,1.23-2.1,2.7-4.01,4.42-5.73,1.72-1.72,3.62-3.19,5.72-4.42,2.1-1.22,4.35-2.18,6.78-2.87,2.42-.67,4.93-1.01,7.54-1.01,3.89,0,7.57.74,11.03,2.24,3.46,1.49,6.46,3.52,9.01,6.06,2.55,2.55,4.57,5.56,6.07,9.02,1.49,3.46,2.24,7.14,2.24,11.03,0,2.61-.35,5.12-1.02,7.54-.68,2.42-1.64,4.67-2.87,6.78-1.22,2.09-2.69,4.01-4.42,5.72-1.71,1.73-3.63,3.2-5.72,4.42-2.1,1.23-4.36,2.19-6.78,2.87-2.42.68-4.93,1.02-7.54,1.02ZM43.67,15.62H14.38c-.29,0-.54.08-.75.28-.21.18-.31.43-.31.76v3.28c0,.16.06.25.19.25l15.38,8.78.13.05c.08,0,.15-.02.18-.05l14.9-8.78c.08-.05.15-.06.18-.06.05,0,.11-.02.18-.07.17,0,.26-.07.26-.25v-3.15c0-.33-.11-.58-.31-.76-.21-.2-.46-.28-.75-.28ZM22.67,28.77s.05-.1.05-.18c0-.13-.04-.18-.12-.18l-8.84-5.08c-.12-.03-.22-.03-.31,0-.08,0-.12.06-.12.2v13.28c0,.12.06.2.19.25h.12c.08,0,.12-.02.12-.06l8.91-8.22ZM33.42,29.77c-.05-.13-.15-.15-.31-.07l-3.4,1.98c-.41.25-.85.25-1.29,0l-2.97-1.67c-.12-.08-.23-.08-.31,0l-11.31,10.5s-.07.13-.07.25c0,.05.04.11.13.2.25.08.41.11.5.11h28.98c.09,0,.16-.03.25-.11,0-.18-.02-.26-.07-.31l-10.13-10.87ZM44.53,23.09h-.25l-8.4,5.01c-.08,0-.12.05-.12.18-.04.05-.02.1.06.18l8.41,9.09c.08.08.14.13.19.13h.12c.13-.13.2-.21.2-.25v-14.1c0-.07-.07-.16-.2-.25Z"/>
</svg>