<?xml version="1.0" encoding="UTF-8"?>
<svg id="Layer_1" xmlns="http://www.w3.org/2000/svg" version="1.1" viewBox="0 0 56.93 56.69">
  <!-- Generator: Adobe Illustrator 29.6.1, SVG Export Plug-In . SVG Version: 2.1.1 Build 9)  -->
  <defs>
    <style>
      .st0 {
        fill: #010101;
      }
    </style>
  </defs>
  <path class="st0" d="M28.59,0C12.93,0,.24,12.69.24,28.35s12.69,28.35,28.35,28.35,28.35-12.69,28.35-28.35S44.24,0,28.59,0ZM20.35,42.85h-6.9v-20.77h6.9v20.77ZM16.9,19.25h-.05c-2.31,0-3.81-1.59-3.81-3.59s1.54-3.59,3.91-3.59,3.81,1.55,3.86,3.59c0,1.99-1.5,3.59-3.91,3.59ZM45.24,42.85h-6.9v-11.11c0-2.79-1-4.7-3.5-4.7-1.91,0-3.04,1.29-3.54,2.53-.18.44-.23,1.06-.23,1.69v11.6h-6.9s.09-18.82,0-20.77h6.9v2.94c.92-1.41,2.56-3.43,6.22-3.43,4.54,0,7.95,2.97,7.95,9.35v11.91Z"/>
</svg>