<?xml version="1.0" encoding="UTF-8" standalone="no"?>
<svg
   xmlns:dc="http://purl.org/dc/elements/1.1/"
   xmlns:cc="http://creativecommons.org/ns#"
   xmlns:rdf="http://www.w3.org/1999/02/22-rdf-syntax-ns#"
   xmlns:svg="http://www.w3.org/2000/svg"
   xmlns="http://www.w3.org/2000/svg"
   xmlns:sodipodi="http://sodipodi.sourceforge.net/DTD/sodipodi-0.dtd"
   xmlns:inkscape="http://www.inkscape.org/namespaces/inkscape"
   version="1.1"
   id="Layer_1"
   x="0px"
   y="0px"
   width="922.05603"
   height="202.76199"
   viewBox="0 0 922.05603 202.762"
   enable-background="new 0 0 1000 338.081"
   xml:space="preserve"
   sodipodi:docname="logo_v2.svg"
   inkscape:version="0.92.3 (2405546, 2018-03-11)"><metadata
   id="metadata3845"><rdf:RDF><cc:Work
       rdf:about=""><dc:format>image/svg+xml</dc:format><dc:type
         rdf:resource="http://purl.org/dc/dcmitype/StillImage" /></cc:Work></rdf:RDF></metadata><defs
   id="defs3843" /><sodipodi:namedview
   pagecolor="#ffffff"
   bordercolor="#666666"
   borderopacity="1"
   objecttolerance="10"
   gridtolerance="10"
   guidetolerance="10"
   inkscape:pageopacity="0"
   inkscape:pageshadow="2"
   inkscape:window-width="2560"
   inkscape:window-height="1369"
   id="namedview3841"
   showgrid="false"
   inkscape:zoom="1.2025"
   inkscape:cx="544.21834"
   inkscape:cy="95.887553"
   inkscape:window-x="-8"
   inkscape:window-y="-8"
   inkscape:window-maximized="1"
   inkscape:current-layer="Layer_1" />
<g
   id="g3838"
   transform="translate(-36.852,-69.052)">
	<g
   id="g3786">
		<polygon
   points="190.812,271.814 249.926,180.712 188.257,180.712 187.989,180.712 128.874,271.814 "
   id="polygon3780"
   style="fill:#ffffff" />
		<polygon
   points="98.79,222.291 157.64,132.476 95.702,132.476 36.852,222.291 "
   id="polygon3782"
   style="fill:#ffffff" />
		<polygon
   points="188.257,180.712 260.811,69.052 198.847,69.052 157.657,132.416 "
   id="polygon3784"
   style="fill:#ffffff" />
	</g>
	<g
   id="g3836">
		<g
   id="g3800">
			<polygon
   points="342.496,130.06 342.496,69.054 312.082,69.054 312.082,211.936 342.496,211.936 342.496,167.726 360.615,148 401.349,211.936 438.263,211.936 379.646,127.282 433.134,69.054 394.658,69.054 "
   id="polygon3788"
   style="fill:#ffffff" />
			<polygon
   points="425.013,109.877 465.739,211.936 496.628,211.936 537.354,109.877 507.452,109.877 481.221,183.258 454.916,109.877 "
   id="polygon3790"
   style="fill:#ffffff" />
			<path
   d="m 617.014,120.824 c -10.2,-9.583 -21.892,-13.804 -32.88,-13.804 -25.923,0 -44.089,23.882 -44.089,53.887 0,30.005 18.166,53.887 44.089,53.887 10.988,0 22.68,-4.22 32.88,-13.804 v 10.945 h 28.571 V 109.877 h -28.571 z m -0.002,57.742 c -8.057,8.017 -18.48,12.076 -26.554,12.09 -13.632,-0.014 -21.425,-11.706 -21.425,-29.75 0,-18.044 8.092,-29.736 21.425,-29.75 8.073,0.014 18.497,4.074 26.554,12.09 z"
   id="path3792"
   inkscape:connector-curvature="0"
   style="fill:#ffffff" />
			<path
   d="m 740.914,120.824 c -10.2,-9.583 -21.891,-13.804 -32.879,-13.804 -25.923,0 -44.089,23.882 -44.089,53.887 0,30.005 18.166,53.887 44.089,53.887 10.988,0 22.679,-4.22 32.879,-13.804 v 10.945 h 28.572 V 109.877 h -28.572 z m -0.002,57.742 c -8.056,8.017 -18.48,12.076 -26.553,12.09 -13.633,-0.014 -21.426,-11.706 -21.426,-29.75 0,-18.044 8.093,-29.736 21.426,-29.75 8.072,0.014 18.497,4.074 26.553,12.09 z"
   id="path3794"
   inkscape:connector-curvature="0"
   style="fill:#ffffff" />
			<path
   d="m 833.453,191.59 c -7.469,0.04 -12.931,-3.936 -12.931,-14.66 V 69.054 H 791.95 v 111.503 c 0,24.539 14.725,34.255 31.917,34.228 7.76,-0.008 16.158,-2.127 24.008,-5.814 l -6.906,-18.736 c -2.734,0.87 -5.256,1.342 -7.516,1.355 z"
   id="path3796"
   inkscape:connector-curvature="0"
   style="fill:#ffffff" />
			<path
   d="m 930.336,109.877 v 10.946 c -10.2,-9.583 -21.891,-13.804 -32.879,-13.804 -25.923,0 -44.089,23.882 -44.089,53.887 0,30.005 18.166,53.887 44.089,53.887 10.988,0 22.679,-4.22 32.879,-13.804 v 10.945 h 28.572 V 109.877 Z m -0.002,68.689 c -8.056,8.017 -18.48,12.076 -26.553,12.09 -13.633,-0.014 -21.426,-11.706 -21.426,-29.75 0,-18.044 8.093,-29.736 21.426,-29.75 8.072,0.014 18.497,4.074 26.553,12.09 z"
   id="path3798"
   inkscape:connector-curvature="0"
   style="fill:#ffffff" />
		</g>
		<g
   id="g3834">
			<path
   d="m 335.586,271.074 -6.208,-21.732 -6.209,21.732 h -4.486 l -6.5,-25.229 h 3.662 l 5.209,20.958 5.793,-20.958 h 5.06 l 5.793,20.958 5.209,-20.958 h 3.662 l -6.499,25.229 z"
   id="path3802"
   inkscape:connector-curvature="0"
   style="fill:#ffffff" />
			<path
   d="m 375.475,271.074 h -16.944 v -25.229 h 16.583 v 2.879 h -13.16 v 7.699 h 11.754 v 2.879 h -11.754 v 8.893 h 13.52 v 2.879 z"
   id="path3804"
   inkscape:connector-curvature="0"
   style="fill:#ffffff" />
			<path
   d="m 425.572,248.883 -0.943,2.595 c -2.803,-1.898 -5.976,-2.883 -8.813,-2.883 -5.213,-0.035 -8.77,4.121 -8.77,9.864 0,5.692 3.566,9.898 8.793,9.898 2.812,-0.001 5.99,-1.016 8.791,-2.905 l 0.942,2.586 c -3.013,2.324 -6.602,3.539 -9.733,3.539 -7.443,0 -12.355,-5.863 -12.355,-13.118 0,-7.305 4.913,-13.168 12.355,-13.118 3.16,0 6.716,1.207 9.733,3.542 z"
   id="path3806"
   inkscape:connector-curvature="0"
   style="fill:#ffffff" />
			<path
   d="m 442.397,261.018 v 10.057 h -3.424 v -25.229 h 3.424 7.539 c 3.975,-0.004 7.309,3.014 7.282,7.586 0,3.622 -2.067,6.244 -4.874,7.195 l 6.136,10.447 h -4.067 l -5.499,-10.056 z m 7.539,-2.878 c 2.042,0 3.722,-1.683 3.722,-4.725 0.018,-2.994 -1.663,-4.694 -3.722,-4.691 h -7.539 v 9.416 z"
   id="path3808"
   inkscape:connector-curvature="0"
   style="fill:#ffffff" />
			<path
   d="m 487.416,271.074 h -16.944 v -25.229 h 16.583 v 2.879 h -13.16 v 7.699 h 11.754 v 2.879 h -11.754 v 8.893 h 13.52 v 2.879 z"
   id="path3810"
   inkscape:connector-curvature="0"
   style="fill:#ffffff" />
			<path
   d="m 517.706,271.074 -2.181,-5.817 h -12.141 l -2.181,5.817 h -3.63 l 9.858,-25.229 h 4.045 l 9.858,25.229 z m -3.255,-8.696 -4.996,-13.317 -4.995,13.317 z"
   id="path3812"
   inkscape:connector-curvature="0"
   style="fill:#ffffff" />
			<path
   d="m 540.306,248.724 v 22.351 h -3.457 v -22.351 h -8.244 v -2.878 h 19.945 v 2.878 z"
   id="path3814"
   inkscape:connector-curvature="0"
   style="fill:#ffffff" />
			<path
   d="m 577.48,271.074 h -16.944 v -25.229 h 16.584 v 2.879 h -13.159 v 7.699 h 11.754 v 2.879 h -11.754 v 8.893 h 13.52 v 2.879 z"
   id="path3816"
   inkscape:connector-curvature="0"
   style="fill:#ffffff" />
			<path
   d="M 623.144,271.074 H 606.2 v -25.229 h 16.584 v 2.879 h -13.159 v 7.699 h 11.754 v 2.879 h -11.754 v 8.893 h 13.52 v 2.879 z"
   id="path3818"
   inkscape:connector-curvature="0"
   style="fill:#ffffff" />
			<path
   d="m 660.713,271.074 h -3.424 v -18.665 l -7.38,10.502 h -3.031 -0.426 l -7.384,-10.504 v 18.667 h -3.424 v -25.229 h 3.017 l 9.518,13.965 9.518,-13.965 h 3.017 v 25.229 z"
   id="path3820"
   inkscape:connector-curvature="0"
   style="fill:#ffffff" />
			<path
   d="m 699.252,258.459 c 0,7.255 -4.87,13.118 -12.373,13.118 -7.454,0 -12.373,-5.863 -12.373,-13.118 0,-7.305 4.919,-13.118 12.373,-13.118 7.503,0 12.373,5.863 12.373,13.118 z m -21.185,0 c 0,5.692 3.573,9.864 8.812,9.864 5.276,0 8.811,-4.163 8.811,-9.864 0,-5.702 -3.534,-9.864 -8.834,-9.864 -5.225,0 -8.789,4.122 -8.789,9.864 z"
   id="path3822"
   inkscape:connector-curvature="0"
   style="fill:#ffffff" />
			<path
   d="m 720.615,248.724 v 22.351 h -3.457 v -22.351 h -8.244 v -2.878 h 19.945 v 2.878 z"
   id="path3824"
   inkscape:connector-curvature="0"
   style="fill:#ffffff" />
			<path
   d="m 740.845,271.074 v -25.229 h 3.425 v 25.229 z"
   id="path3826"
   inkscape:connector-curvature="0"
   style="fill:#ffffff" />
			<path
   d="m 782.793,258.459 c 0,7.255 -4.87,13.118 -12.373,13.118 -7.454,0 -12.373,-5.863 -12.373,-13.118 0,-7.305 4.919,-13.118 12.373,-13.118 7.503,0 12.373,5.863 12.373,13.118 z m -21.185,0 c 0,5.692 3.573,9.864 8.812,9.864 5.276,0 8.811,-4.163 8.811,-9.864 0,-5.702 -3.534,-9.864 -8.834,-9.864 -5.225,0 -8.789,4.122 -8.789,9.864 z"
   id="path3828"
   inkscape:connector-curvature="0"
   style="fill:#ffffff" />
			<path
   d="m 817.212,271.074 h -3.017 l -14.363,-18.986 v 18.986 h -3.424 v -25.229 h 3.017 l 14.363,18.985 v -18.985 h 3.424 z"
   id="path3830"
   inkscape:connector-curvature="0"
   style="fill:#ffffff" />
			<path
   d="m 848.573,248.588 -1.878,2.363 c -1.78,-1.446 -4.192,-2.424 -7.247,-2.431 -3.307,0.007 -5.495,1.157 -5.496,4.182 0.023,1.958 0.986,2.616 6.242,4.02 3.924,1.045 8.815,2.09 8.893,7.258 0.077,5.194 -4.974,7.602 -9.459,7.602 -3.813,0 -7.813,-1.73 -9.896,-4.294 l 1.871,-2.335 c 1.863,2.296 5.309,3.511 8.021,3.495 3.123,0.016 5.91,-1.496 5.901,-4.365 -0.008,-2.735 -2.5,-3.198 -6.255,-4.209 -6.411,-1.743 -8.855,-3.257 -8.88,-7.192 -10e-4,-5.397 4.685,-7.34 9.109,-7.34 3.647,-0.001 6.885,1.313 9.074,3.246 z"
   id="path3832"
   inkscape:connector-curvature="0"
   style="fill:#ffffff" />
		</g>
	</g>
</g>
</svg>