<svg version="1.1" id="Layer_1" xmlns="http://www.w3.org/2000/svg" xmlns:xlink="http://www.w3.org/1999/xlink" x="0px" y="0px"
	 width="1000px" height="338.081px" viewBox="0 0 1000 338.081" enable-background="new 0 0 1000 338.081" xml:space="preserve">
<g>
	<g>
		<polygon fill="#FFFFFF" points="187.989,180.712 128.874,271.814 190.812,271.814 249.926,180.712 188.257,180.712 		"/>
		<polygon fill="#FFFFFF" points="95.702,132.476 36.852,222.291 98.79,222.291 157.64,132.476 		"/>
		<polygon fill="#FFFFFF" points="198.847,69.052 157.657,132.416 188.257,180.712 260.811,69.052 		"/>
	</g>
	<g>
		<g>
			<polygon fill="#FFFFFF" points="433.134,69.054 394.658,69.054 342.496,130.06 342.496,69.054 312.082,69.054 312.082,211.936 
				342.496,211.936 342.496,167.726 360.615,148 401.349,211.936 438.263,211.936 379.646,127.282 			"/>
			<polygon fill="#FFFFFF" points="481.221,183.258 454.916,109.877 425.013,109.877 465.739,211.936 496.628,211.936 
				537.354,109.877 507.452,109.877 			"/>
			<path fill="#FFFFFF" d="M617.014,120.824c-10.2-9.583-21.892-13.804-32.88-13.804c-25.923,0-44.089,23.882-44.089,53.887
				c0,30.005,18.166,53.887,44.089,53.887c10.988,0,22.68-4.22,32.88-13.804v10.945h28.571V109.877h-28.571V120.824z
				 M617.012,178.566c-8.057,8.017-18.48,12.076-26.554,12.09c-13.632-0.014-21.425-11.706-21.425-29.75
				c0-18.044,8.092-29.736,21.425-29.75c8.073,0.014,18.497,4.074,26.554,12.09V178.566z"/>
			<path fill="#FFFFFF" d="M740.914,120.824c-10.2-9.583-21.891-13.804-32.879-13.804c-25.923,0-44.089,23.882-44.089,53.887
				c0,30.005,18.166,53.887,44.089,53.887c10.988,0,22.679-4.22,32.879-13.804v10.945h28.572V109.877h-28.572V120.824z
				 M740.912,178.566c-8.056,8.017-18.48,12.076-26.553,12.09c-13.633-0.014-21.426-11.706-21.426-29.75
				c0-18.044,8.093-29.736,21.426-29.75c8.072,0.014,18.497,4.074,26.553,12.09V178.566z"/>
			<path fill="#FFFFFF" d="M833.453,191.59c-7.469,0.04-12.931-3.936-12.931-14.66V69.054H791.95v111.503
				c0,24.539,14.725,34.255,31.917,34.228c7.76-0.008,16.158-2.127,24.008-5.814l-6.906-18.736
				C838.235,191.105,835.713,191.577,833.453,191.59z"/>
			<path fill="#FFFFFF" d="M930.336,109.877v10.946c-10.2-9.583-21.891-13.804-32.879-13.804c-25.923,0-44.089,23.882-44.089,53.887
				c0,30.005,18.166,53.887,44.089,53.887c10.988,0,22.679-4.22,32.879-13.804v10.945h28.572V109.877H930.336z M930.334,178.566
				c-8.056,8.017-18.48,12.076-26.553,12.09c-13.633-0.014-21.426-11.706-21.426-29.75c0-18.044,8.093-29.736,21.426-29.75
				c8.072,0.014,18.497,4.074,26.553,12.09V178.566z"/>
		</g>
		<g>
			<path fill="#FFFFFF" d="M335.586,271.074l-6.208-21.732l-6.209,21.732h-4.486l-6.5-25.229h3.662l5.209,20.958l5.793-20.958h5.06
				l5.793,20.958l5.209-20.958h3.662l-6.499,25.229H335.586z"/>
			<path fill="#FFFFFF" d="M375.475,271.074h-16.944v-25.229h16.583v2.879h-13.16v7.699h11.754v2.879h-11.754v8.893h13.52V271.074z"
				/>
			<path fill="#FFFFFF" d="M425.572,248.883l-0.943,2.595c-2.803-1.898-5.976-2.883-8.813-2.883c-5.213-0.035-8.77,4.121-8.77,9.864
				c0,5.692,3.566,9.898,8.793,9.898c2.812-0.001,5.99-1.016,8.791-2.905l0.942,2.586c-3.013,2.324-6.602,3.539-9.733,3.539
				c-7.443,0-12.355-5.863-12.355-13.118c0-7.305,4.913-13.168,12.355-13.118C418.999,245.341,422.555,246.548,425.572,248.883z"/>
			<path fill="#FFFFFF" d="M442.397,261.018v10.057h-3.424v-25.229h3.424h7.539c3.975-0.004,7.309,3.014,7.282,7.586
				c0,3.622-2.067,6.244-4.874,7.195l6.136,10.447h-4.067l-5.499-10.056L442.397,261.018z M449.936,258.14
				c2.042,0,3.722-1.683,3.722-4.725c0.018-2.994-1.663-4.694-3.722-4.691h-7.539v9.416H449.936z"/>
			<path fill="#FFFFFF" d="M487.416,271.074h-16.944v-25.229h16.583v2.879h-13.16v7.699h11.754v2.879h-11.754v8.893h13.52V271.074z"
				/>
			<path fill="#FFFFFF" d="M517.706,271.074l-2.181-5.817h-12.141l-2.181,5.817h-3.63l9.858-25.229h4.045l9.858,25.229H517.706z
				 M514.451,262.378l-4.996-13.317l-4.995,13.317H514.451z"/>
			<path fill="#FFFFFF" d="M540.306,248.724v22.351h-3.457v-22.351h-8.244v-2.878h19.945v2.878H540.306z"/>
			<path fill="#FFFFFF" d="M577.48,271.074h-16.944v-25.229h16.584v2.879h-13.159v7.699h11.754v2.879h-11.754v8.893h13.52V271.074z"
				/>
			<path fill="#FFFFFF" d="M623.144,271.074h-16.944v-25.229h16.584v2.879h-13.159v7.699h11.754v2.879h-11.754v8.893h13.52V271.074z
				"/>
			<path fill="#FFFFFF" d="M660.713,271.074h-3.424v-18.665l-7.38,10.502h-3.031h-0.426l-7.384-10.504v18.667h-3.424v-25.229h3.017
				l9.518,13.965l9.518-13.965h3.017V271.074z"/>
			<path fill="#FFFFFF" d="M699.252,258.459c0,7.255-4.87,13.118-12.373,13.118c-7.454,0-12.373-5.863-12.373-13.118
				c0-7.305,4.919-13.118,12.373-13.118C694.382,245.341,699.252,251.204,699.252,258.459z M678.067,258.459
				c0,5.692,3.573,9.864,8.812,9.864c5.276,0,8.811-4.163,8.811-9.864c0-5.702-3.534-9.864-8.834-9.864
				C681.631,248.595,678.067,252.717,678.067,258.459z"/>
			<path fill="#FFFFFF" d="M720.615,248.724v22.351h-3.457v-22.351h-8.244v-2.878h19.945v2.878H720.615z"/>
			<path fill="#FFFFFF" d="M740.845,271.074v-25.229h3.425v25.229H740.845z"/>
			<path fill="#FFFFFF" d="M782.793,258.459c0,7.255-4.87,13.118-12.373,13.118c-7.454,0-12.373-5.863-12.373-13.118
				c0-7.305,4.919-13.118,12.373-13.118C777.923,245.341,782.793,251.204,782.793,258.459z M761.608,258.459
				c0,5.692,3.573,9.864,8.812,9.864c5.276,0,8.811-4.163,8.811-9.864c0-5.702-3.534-9.864-8.834-9.864
				C765.172,248.595,761.608,252.717,761.608,258.459z"/>
			<path fill="#FFFFFF" d="M817.212,271.074h-3.017l-14.363-18.986v18.986h-3.424v-25.229h3.017l14.363,18.985v-18.985h3.424
				V271.074z"/>
			<path fill="#FFFFFF" d="M848.573,248.588l-1.878,2.363c-1.78-1.446-4.192-2.424-7.247-2.431
				c-3.307,0.007-5.495,1.157-5.496,4.182c0.023,1.958,0.986,2.616,6.242,4.02c3.924,1.045,8.815,2.09,8.893,7.258
				c0.077,5.194-4.974,7.602-9.459,7.602c-3.813,0-7.813-1.73-9.896-4.294l1.871-2.335c1.863,2.296,5.309,3.511,8.021,3.495
				c3.123,0.016,5.91-1.496,5.901-4.365c-0.008-2.735-2.5-3.198-6.255-4.209c-6.411-1.743-8.855-3.257-8.88-7.192
				c-0.001-5.397,4.685-7.34,9.109-7.34C843.146,245.341,846.384,246.655,848.573,248.588z"/>
		</g>
	</g>
</g>
</svg>