<?xml version="1.0" encoding="utf-8"?>
<!-- Generator: Adobe Illustrator 16.0.0, SVG Export Plug-In . SVG Version: 6.00 Build 0)  -->
<!DOCTYPE svg PUBLIC "-//W3C//DTD SVG 1.1//EN" "http://www.w3.org/Graphics/SVG/1.1/DTD/svg11.dtd">
<svg version="1.1" id="Layer_1" xmlns="http://www.w3.org/2000/svg" xmlns:xlink="http://www.w3.org/1999/xlink" x="0px" y="0px"
	 width="1000px" height="338.081px" viewBox="0 0 1000 338.081" enable-background="new 0 0 1000 338.081" xml:space="preserve">
<g>
	<polygon fill="#FFFFFF" points="192.933,270.421 252.047,179.32 190.111,179.32 130.997,270.421 	"/>
	<polygon fill="#FFFFFF" points="100.916,220.896 159.756,131.088 97.828,131.088 38.973,220.896 	"/>
	<polygon fill="#FFFFFF" points="200.97,67.66 159.778,131.021 190.377,179.32 262.928,67.66 	"/>
	<polygon fill="#FFFFFF" points="344.618,193.43 344.618,237.65 314.204,237.65 314.204,94.757 344.618,94.757 344.618,155.769 
		396.78,94.757 435.254,94.757 381.769,152.991 440.381,237.65 403.466,237.65 362.739,173.706 	"/>
	<polygon fill="#FFFFFF" points="498.749,237.65 467.862,237.65 427.135,135.587 457.039,135.587 483.346,208.966 509.578,135.587 
		539.475,135.587 	"/>
	<path fill="#FFFFFF" d="M619.133,204.268v-35.313c-8.053-8.022-18.482-12.078-26.559-12.093
		c-13.334,0.015-21.416,11.709-21.416,29.749c0,18.048,7.795,29.734,21.416,29.764C600.65,216.346,611.08,212.297,619.133,204.268
		 M647.707,237.65h-28.566v-10.947c-10.203,9.573-21.896,13.799-32.889,13.799c-25.916,0-44.088-23.891-44.088-53.891
		s18.172-53.884,44.088-53.884c10.992,0,22.686,4.219,32.889,13.808v-10.948h28.566V237.65z"/>
	<path fill="#FFFFFF" d="M743.033,204.268v-35.313c-8.059-8.022-18.482-12.078-26.557-12.093
		c-13.334,0.015-21.416,11.709-21.416,29.749c0,18.048,7.785,29.734,21.416,29.764C724.551,216.346,734.975,212.297,743.033,204.268
		 M771.607,237.65h-28.574v-10.947c-10.193,9.573-21.889,13.799-32.881,13.799c-25.922,0-44.088-23.891-44.088-53.891
		s18.166-53.884,44.088-53.884c10.992,0,22.688,4.219,32.881,13.808v-10.948h28.574V237.65z"/>
	<path fill="#FFFFFF" d="M822.648,202.635c0,10.727,5.459,14.701,12.928,14.656c2.26-0.015,4.779-0.473,7.512-1.345l6.908,18.734
		c-7.846,3.68-16.252,5.807-24.01,5.807c-17.189,0.029-31.914-9.678-31.914-34.226V94.757h28.576V202.635z"/>
	<path fill="#FFFFFF" d="M932.453,204.268v-35.313c-8.059-8.022-18.482-12.078-26.549-12.093
		c-13.336,0.015-21.424,11.709-21.424,29.749c0,18.048,7.793,29.734,21.424,29.764C913.971,216.346,924.395,212.297,932.453,204.268
		 M961.027,237.65h-28.566v-10.947c-10.201,9.573-21.896,13.799-32.881,13.799c-25.93,0-44.088-23.891-44.088-53.891
		s18.158-53.884,44.088-53.884c10.984,0,22.68,4.219,32.881,13.808v-10.948h28.566V237.65z"/>
</g>
</svg>
